<?xml version="1.0" encoding="utf-8"?>
<!-- Generator: Adobe Illustrator 25.4.1, SVG Export Plug-In . SVG Version: 6.00 Build 0)  -->
<svg version="1.1" id="Layer_1" xmlns="http://www.w3.org/2000/svg" xmlns:xlink="http://www.w3.org/1999/xlink" x="0px" y="0px"
	 viewBox="0 0 16 16" style="enable-background:new 0 0 16 16;" xml:space="preserve">
<style type="text/css">
	.st0{fill:#FFFFFF;}
</style>
<path class="st0" d="M1.3,2C1,1.8,1,1.5,1.3,1.2s0.6-0.2,0.8,0L8,7.2L14,1.2c0.2-0.2,0.6-0.2,0.8,0C15,1.5,15,1.8,14.8,2l0,0L8.8,8
	l5.9,5.9c0.2,0.2,0.2,0.6,0,0.8c-0.2,0.2-0.6,0.2-0.8,0L8,8.8l-5.9,5.9c-0.2,0.2-0.6,0.2-0.8,0c-0.2-0.2-0.2-0.6,0-0.8L7.2,8L1.3,2z
	"/>
</svg>
