<?xml version="1.0" encoding="utf-8"?>
<!-- Generator: Adobe Illustrator 25.4.1, SVG Export Plug-In . SVG Version: 6.00 Build 0)  -->
<svg version="1.1" id="Layer_1" xmlns="http://www.w3.org/2000/svg" xmlns:xlink="http://www.w3.org/1999/xlink" x="0px" y="0px"
	 viewBox="0 0 16 16" style="enable-background:new 0 0 16 16;" xml:space="preserve">
<style type="text/css">
	.st0{fill-rule:evenodd;clip-rule:evenodd;fill:#FFFFFF;}
</style>
<path class="st0" d="M0.7,13.2c0-0.4,0.3-0.7,0.7-0.7h13.2c0.4,0,0.7,0.3,0.7,0.7c0,0.4-0.3,0.7-0.7,0.7H1.4
	C1,13.9,0.7,13.6,0.7,13.2z M0.7,8c0-0.4,0.3-0.7,0.7-0.7h13.2c0.4,0,0.7,0.3,0.7,0.7c0,0.4-0.3,0.7-0.7,0.7H1.4
	C1,8.6,0.7,8.3,0.7,8z M0.7,2.7C0.7,2.3,1,2,1.4,2h13.2c0.4,0,0.7,0.3,0.7,0.7S15,3.3,14.6,3.3H1.4C1,3.3,0.7,3,0.7,2.7z"/>
</svg>
