<?xml version="1.0" encoding="utf-8"?>
<!-- Generator: Adobe Illustrator 25.4.1, SVG Export Plug-In . SVG Version: 6.00 Build 0)  -->
<svg version="1.1" id="Layer_1" xmlns="http://www.w3.org/2000/svg" xmlns:xlink="http://www.w3.org/1999/xlink" x="0px" y="0px"
	 viewBox="0 0 16 16" style="enable-background:new 0 0 16 16;" xml:space="preserve">
<style type="text/css">
	.st0{fill:#FF141B;}
</style>
<path class="st0" d="M5.4,5.1l2.2-4.3C7.6,0.6,7.8,0.5,8,0.5c0.2,0,0.4,0.1,0.5,0.3l2.2,4.3l4.9,0.7c0.3,0,0.4,0.3,0.5,0.5
	c0,0.2,0,0.3-0.2,0.4l-3.5,3.4l0.8,4.7c0.1,0.4-0.4,0.8-0.7,0.6L8,13.2l-4.4,2.3c0,0-0.1,0-0.1,0.1c-0.3,0.1-0.7-0.3-0.6-0.6
	l0.8-4.7L0.2,6.8C0.1,6.7,0,6.5,0,6.4c0-0.1,0-0.2,0.1-0.3c0.1-0.1,0.2-0.2,0.4-0.2C0.5,5.8,5.4,5.1,5.4,5.1z M8,12
	c0.1,0,0.2,0,0.2,0.1l3.7,1.9l-0.7-4c0-0.2,0-0.4,0.2-0.5l2.9-2.8l-4.1-0.6c-0.2,0-0.3-0.1-0.4-0.3L8,2.2l0,0V12L8,12z"/>
</svg>
